<?xml version="1.0" encoding="UTF-8" standalone="no"?>
<!DOCTYPE svg PUBLIC "-//W3C//DTD SVG 1.1//EN"
 "http://www.w3.org/Graphics/SVG/1.1/DTD/svg11.dtd">
<!-- Generated by graphviz version 9.0.0 (20230911.1827)
 -->
<!-- Title: G Pages: 1 -->
<svg width="1717pt" height="1164pt"
 viewBox="0.00 0.00 1717.25 1164.00" xmlns="http://www.w3.org/2000/svg" xmlns:xlink="http://www.w3.org/1999/xlink">
<g id="graph0" class="graph" transform="scale(1 1) rotate(0) translate(4 1160)">
<title>G</title>
<polygon fill="white" stroke="none" points="-4,4 -4,-1160 1713.25,-1160 1713.25,4 -4,4"/>
<g id="clust1" class="cluster">
<title>cluster_login</title>
<polygon fill="none" stroke="black" points="9.88,-932 9.88,-1063 1050,-1063 1050,-932 9.88,-932"/>
<text text-anchor="middle" x="529.94" y="-1045.7" font-family="Times,serif" font-size="14.00">login Function</text>
</g>
<g id="clust2" class="cluster">
<title>cluster_setupMap</title>
<polygon fill="none" stroke="black" points="8,-1071 8,-1148 1375.38,-1148 1375.38,-1071 8,-1071"/>
<text text-anchor="middle" x="691.69" y="-1130.7" font-family="Times,serif" font-size="14.00">setupMap Function</text>
</g>
<g id="clust3" class="cluster">
<title>cluster_refreshTokenIfNeeded</title>
<polygon fill="none" stroke="black" points="847.38,-8 847.38,-139 1640.38,-139 1640.38,-8 847.38,-8"/>
<text text-anchor="middle" x="1243.88" y="-121.7" font-family="Times,serif" font-size="14.00">refreshTokenIfNeeded Function</text>
</g>
<g id="clust4" class="cluster">
<title>cluster_addLayer</title>
<polygon fill="none" stroke="black" points="572.75,-572 572.75,-649 1374.62,-649 1374.62,-572 572.75,-572"/>
<text text-anchor="middle" x="973.69" y="-631.7" font-family="Times,serif" font-size="14.00">addLayer Function</text>
</g>
<g id="clust5" class="cluster">
<title>cluster_ensureLabelOnTop</title>
<polygon fill="none" stroke="black" points="865.38,-487 865.38,-564 1353.62,-564 1353.62,-487 865.38,-487"/>
<text text-anchor="middle" x="1109.5" y="-546.7" font-family="Times,serif" font-size="14.00">ensureLabelOnTop Function</text>
</g>
<g id="clust6" class="cluster">
<title>cluster_zoomToPopularPlace</title>
<polygon fill="none" stroke="black" points="596,-402 596,-479 1339.38,-479 1339.38,-402 596,-402"/>
<text text-anchor="middle" x="967.69" y="-461.7" font-family="Times,serif" font-size="14.00">zoomToPopularPlace Function</text>
</g>
<g id="clust7" class="cluster">
<title>cluster_openModal</title>
<polygon fill="none" stroke="black" points="865.38,-317 865.38,-394 1346.5,-394 1346.5,-317 865.38,-317"/>
<text text-anchor="middle" x="1105.94" y="-376.7" font-family="Times,serif" font-size="14.00">openModal Function</text>
</g>
<g id="clust8" class="cluster">
<title>cluster_closeModal</title>
<polygon fill="none" stroke="black" points="865.38,-232 865.38,-309 1336.75,-309 1336.75,-232 865.38,-232"/>
<text text-anchor="middle" x="1101.06" y="-291.7" font-family="Times,serif" font-size="14.00">closeModal Function</text>
</g>
<g id="clust9" class="cluster">
<title>cluster_loadExtentFromUrl</title>
<polygon fill="none" stroke="black" points="900.25,-147 900.25,-224 1351.75,-224 1351.75,-147 900.25,-147"/>
<text text-anchor="middle" x="1126" y="-206.7" font-family="Times,serif" font-size="14.00">loadExtentFromUrl Function</text>
</g>
<!-- start -->
<g id="node1" class="node">
<title>start</title>
<ellipse fill="none" stroke="black" cx="90.75" cy="-858" rx="37" ry="18"/>
<text text-anchor="middle" x="90.75" y="-853.33" font-family="Times,serif" font-size="14.00">Start</text>
</g>
<!-- login -->
<g id="node3" class="node">
<title>login</title>
<polygon fill="none" stroke="black" points="348.62,-876 225.38,-876 225.38,-840 348.62,-840 348.62,-876"/>
<text text-anchor="middle" x="287" y="-853.33" font-family="Times,serif" font-size="14.00">Function: login</text>
</g>
<!-- start&#45;&gt;login -->
<g id="edge1" class="edge">
<title>start&#45;&gt;login</title>
<path fill="none" stroke="black" d="M127.83,-858C151.85,-858 184.25,-858 213.47,-858"/>
<polygon fill="black" stroke="black" points="213.4,-861.5 223.4,-858 213.4,-854.5 213.4,-861.5"/>
</g>
<!-- end -->
<g id="node2" class="node">
<title>end</title>
<ellipse fill="none" stroke="black" cx="1599.62" cy="-88" rx="31.22" ry="18"/>
<text text-anchor="middle" x="1599.62" y="-83.33" font-family="Times,serif" font-size="14.00">End</text>
</g>
<!-- setupMap -->
<g id="node4" class="node">
<title>setupMap</title>
<polygon fill="none" stroke="black" points="1033.75,-855 874.5,-855 874.5,-819 1033.75,-819 1033.75,-855"/>
<text text-anchor="middle" x="954.12" y="-832.33" font-family="Times,serif" font-size="14.00">Function: setupMap</text>
</g>
<!-- login&#45;&gt;setupMap -->
<g id="edge2" class="edge">
<title>login&#45;&gt;setupMap</title>
<path fill="none" stroke="black" d="M349.08,-856.07C466.69,-852.36 725.07,-844.2 862.69,-839.86"/>
<polygon fill="black" stroke="black" points="862.61,-843.36 872.49,-839.55 862.39,-836.36 862.61,-843.36"/>
</g>
<!-- refreshTokenIfNeeded -->
<g id="node5" class="node">
<title>refreshTokenIfNeeded</title>
<polygon fill="none" stroke="black" points="793.62,-922 546.62,-922 546.62,-886 793.62,-886 793.62,-922"/>
<text text-anchor="middle" x="670.12" y="-899.33" font-family="Times,serif" font-size="14.00">Function: refreshTokenIfNeeded</text>
</g>
<!-- login&#45;&gt;refreshTokenIfNeeded -->
<g id="edge3" class="edge">
<title>login&#45;&gt;refreshTokenIfNeeded</title>
<path fill="none" stroke="black" d="M348.89,-866.63C362.26,-868.46 376.35,-870.34 389.5,-872 436.86,-877.98 488.8,-884.05 534.92,-889.28"/>
<polygon fill="black" stroke="black" points="534.37,-892.74 544.7,-890.38 535.16,-885.78 534.37,-892.74"/>
</g>
<!-- cluster_login -->
<g id="node23" class="node">
<title>cluster_login</title>
<polygon fill="none" stroke="black" points="723.88,-830 616.38,-830 616.38,-794 723.88,-794 723.88,-830"/>
<text text-anchor="middle" x="670.12" y="-807.33" font-family="Times,serif" font-size="14.00">cluster_login</text>
</g>
<!-- login&#45;&gt;cluster_login -->
<g id="edge19" class="edge">
<title>login&#45;&gt;cluster_login</title>
<path fill="none" stroke="black" d="M348.89,-849.37C362.26,-847.54 376.35,-845.66 389.5,-844 463.2,-834.7 547.98,-825.16 604.69,-818.95"/>
<polygon fill="black" stroke="black" points="604.93,-822.44 614.49,-817.87 604.17,-815.48 604.93,-822.44"/>
</g>
<!-- addLayer -->
<g id="node6" class="node">
<title>addLayer</title>
<polygon fill="none" stroke="black" points="1356.88,-1017 1202.12,-1017 1202.12,-981 1356.88,-981 1356.88,-1017"/>
<text text-anchor="middle" x="1279.5" y="-994.33" font-family="Times,serif" font-size="14.00">Function: addLayer</text>
</g>
<!-- setupMap&#45;&gt;addLayer -->
<g id="edge4" class="edge">
<title>setupMap&#45;&gt;addLayer</title>
<path fill="none" stroke="black" d="M1033.77,-855.43C1046.74,-860.9 1059.33,-867.94 1069.75,-877 1082.95,-888.48 1076.71,-898.43 1087.75,-912 1114.53,-944.91 1123.86,-953.4 1162,-972 1171.11,-976.44 1180.99,-980.17 1191.01,-983.3"/>
<polygon fill="black" stroke="black" points="1189.87,-986.62 1200.45,-986.04 1191.82,-979.89 1189.87,-986.62"/>
</g>
<!-- ensureLabelOnTop -->
<g id="node7" class="node">
<title>ensureLabelOnTop</title>
<polygon fill="none" stroke="black" points="1390.25,-963 1168.75,-963 1168.75,-927 1390.25,-927 1390.25,-963"/>
<text text-anchor="middle" x="1279.5" y="-940.33" font-family="Times,serif" font-size="14.00">Function: ensureLabelOnTop</text>
</g>
<!-- setupMap&#45;&gt;ensureLabelOnTop -->
<g id="edge5" class="edge">
<title>setupMap&#45;&gt;ensureLabelOnTop</title>
<path fill="none" stroke="black" d="M1010.85,-855.41C1029.68,-861.91 1050.74,-869.47 1069.75,-877 1111.47,-893.52 1119.45,-903.76 1162,-918 1167.72,-919.92 1173.65,-921.74 1179.65,-923.48"/>
<polygon fill="black" stroke="black" points="1178.5,-926.79 1189.07,-926.1 1180.37,-920.05 1178.5,-926.79"/>
</g>
<!-- zoomToPopularPlace -->
<g id="node8" class="node">
<title>zoomToPopularPlace</title>
<polygon fill="none" stroke="black" points="1397,-909 1162,-909 1162,-873 1397,-873 1397,-909"/>
<text text-anchor="middle" x="1279.5" y="-886.33" font-family="Times,serif" font-size="14.00">Function: zoomToPopularPlace</text>
</g>
<!-- setupMap&#45;&gt;zoomToPopularPlace -->
<g id="edge6" class="edge">
<title>setupMap&#45;&gt;zoomToPopularPlace</title>
<path fill="none" stroke="black" d="M1034.23,-850.21C1071.06,-856.36 1115.69,-863.81 1156.68,-870.66"/>
<polygon fill="black" stroke="black" points="1155.92,-874.08 1166.36,-872.27 1157.08,-867.18 1155.92,-874.08"/>
</g>
<!-- openModal -->
<g id="node9" class="node">
<title>openModal</title>
<polygon fill="none" stroke="black" points="1362.88,-855 1196.12,-855 1196.12,-819 1362.88,-819 1362.88,-855"/>
<text text-anchor="middle" x="1279.5" y="-832.33" font-family="Times,serif" font-size="14.00">Function: openModal</text>
</g>
<!-- setupMap&#45;&gt;openModal -->
<g id="edge7" class="edge">
<title>setupMap&#45;&gt;openModal</title>
<path fill="none" stroke="black" d="M1034.23,-837C1079.58,-837 1136.79,-837 1184.43,-837"/>
<polygon fill="black" stroke="black" points="1184.19,-840.5 1194.19,-837 1184.18,-833.5 1184.19,-840.5"/>
</g>
<!-- closeModal -->
<g id="node10" class="node">
<title>closeModal</title>
<polygon fill="none" stroke="black" points="1363.62,-801 1195.38,-801 1195.38,-765 1363.62,-765 1363.62,-801"/>
<text text-anchor="middle" x="1279.5" y="-778.33" font-family="Times,serif" font-size="14.00">Function: closeModal</text>
</g>
<!-- setupMap&#45;&gt;closeModal -->
<g id="edge8" class="edge">
<title>setupMap&#45;&gt;closeModal</title>
<path fill="none" stroke="black" d="M1034.23,-823.79C1079.41,-816.25 1136.35,-806.74 1183.89,-798.8"/>
<polygon fill="black" stroke="black" points="1184.35,-802.27 1193.64,-797.17 1183.2,-795.37 1184.35,-802.27"/>
</g>
<!-- loadExtentFromUrl -->
<g id="node11" class="node">
<title>loadExtentFromUrl</title>
<polygon fill="none" stroke="black" points="1393.25,-747 1165.75,-747 1165.75,-711 1393.25,-711 1393.25,-747"/>
<text text-anchor="middle" x="1279.5" y="-724.33" font-family="Times,serif" font-size="14.00">Function: loadExtentFromUrl</text>
</g>
<!-- setupMap&#45;&gt;loadExtentFromUrl -->
<g id="edge9" class="edge">
<title>setupMap&#45;&gt;loadExtentFromUrl</title>
<path fill="none" stroke="black" d="M996.88,-818.58C1038.22,-800.83 1103.6,-774.09 1162,-756 1168.44,-754 1175.13,-752.08 1181.88,-750.24"/>
<polygon fill="black" stroke="black" points="1182.31,-753.75 1191.08,-747.81 1180.52,-746.98 1182.31,-753.75"/>
</g>
<!-- cluster_setupMap -->
<g id="node24" class="node">
<title>cluster_setupMap</title>
<polygon fill="none" stroke="black" points="1351.25,-693 1207.75,-693 1207.75,-657 1351.25,-657 1351.25,-693"/>
<text text-anchor="middle" x="1279.5" y="-670.33" font-family="Times,serif" font-size="14.00">cluster_setupMap</text>
</g>
<!-- setupMap&#45;&gt;cluster_setupMap -->
<g id="edge20" class="edge">
<title>setupMap&#45;&gt;cluster_setupMap</title>
<path fill="none" stroke="black" d="M977.49,-818.55C1013.89,-789.45 1089.21,-733.03 1162,-702 1172.89,-697.36 1184.72,-693.44 1196.51,-690.16"/>
<polygon fill="black" stroke="black" points="1197.07,-693.63 1205.85,-687.71 1195.29,-686.86 1197.07,-693.63"/>
</g>
<!-- cluster_refreshTokenIfNeeded -->
<g id="node42" class="node">
<title>cluster_refreshTokenIfNeeded</title>
<polygon fill="none" stroke="black" points="1069.75,-922 838.5,-922 838.5,-886 1069.75,-886 1069.75,-922"/>
<text text-anchor="middle" x="954.12" y="-899.33" font-family="Times,serif" font-size="14.00">cluster_refreshTokenIfNeeded</text>
</g>
<!-- refreshTokenIfNeeded&#45;&gt;cluster_refreshTokenIfNeeded -->
<g id="edge41" class="edge">
<title>refreshTokenIfNeeded&#45;&gt;cluster_refreshTokenIfNeeded</title>
<path fill="none" stroke="black" d="M793.99,-904C804.9,-904 815.95,-904 826.89,-904"/>
<polygon fill="black" stroke="black" points="826.71,-907.5 836.71,-904 826.71,-900.5 826.71,-907.5"/>
</g>
<!-- cluster_addLayer -->
<g id="node43" class="node">
<title>cluster_addLayer</title>
<polygon fill="none" stroke="black" points="1669.12,-1017 1530.12,-1017 1530.12,-981 1669.12,-981 1669.12,-1017"/>
<text text-anchor="middle" x="1599.62" y="-994.33" font-family="Times,serif" font-size="14.00">cluster_addLayer</text>
</g>
<!-- addLayer&#45;&gt;cluster_addLayer -->
<g id="edge42" class="edge">
<title>addLayer&#45;&gt;cluster_addLayer</title>
<path fill="none" stroke="black" d="M1357.1,-999C1405.89,-999 1468.97,-999 1518.43,-999"/>
<polygon fill="black" stroke="black" points="1518.22,-1002.5 1528.22,-999 1518.22,-995.5 1518.22,-1002.5"/>
</g>
<!-- cluster_ensureLabelOnTop -->
<g id="node44" class="node">
<title>cluster_ensureLabelOnTop</title>
<polygon fill="none" stroke="black" points="1702.5,-963 1496.75,-963 1496.75,-927 1702.5,-927 1702.5,-963"/>
<text text-anchor="middle" x="1599.62" y="-940.33" font-family="Times,serif" font-size="14.00">cluster_ensureLabelOnTop</text>
</g>
<!-- ensureLabelOnTop&#45;&gt;cluster_ensureLabelOnTop -->
<g id="edge43" class="edge">
<title>ensureLabelOnTop&#45;&gt;cluster_ensureLabelOnTop</title>
<path fill="none" stroke="black" d="M1390.43,-945C1421.06,-945 1454.38,-945 1485.21,-945"/>
<polygon fill="black" stroke="black" points="1484.93,-948.5 1494.93,-945 1484.93,-941.5 1484.93,-948.5"/>
</g>
<!-- cluster_zoomToPopularPlace -->
<g id="node45" class="node">
<title>cluster_zoomToPopularPlace</title>
<polygon fill="none" stroke="black" points="1709.25,-909 1490,-909 1490,-873 1709.25,-873 1709.25,-909"/>
<text text-anchor="middle" x="1599.62" y="-886.33" font-family="Times,serif" font-size="14.00">cluster_zoomToPopularPlace</text>
</g>
<!-- zoomToPopularPlace&#45;&gt;cluster_zoomToPopularPlace -->
<g id="edge44" class="edge">
<title>zoomToPopularPlace&#45;&gt;cluster_zoomToPopularPlace</title>
<path fill="none" stroke="black" d="M1397.15,-891C1423.61,-891 1451.75,-891 1478.35,-891"/>
<polygon fill="black" stroke="black" points="1478.14,-894.5 1488.14,-891 1478.14,-887.5 1478.14,-894.5"/>
</g>
<!-- cluster_openModal -->
<g id="node46" class="node">
<title>cluster_openModal</title>
<polygon fill="none" stroke="black" points="1675.12,-855 1524.12,-855 1524.12,-819 1675.12,-819 1675.12,-855"/>
<text text-anchor="middle" x="1599.62" y="-832.33" font-family="Times,serif" font-size="14.00">cluster_openModal</text>
</g>
<!-- openModal&#45;&gt;cluster_openModal -->
<g id="edge45" class="edge">
<title>openModal&#45;&gt;cluster_openModal</title>
<path fill="none" stroke="black" d="M1363.25,-837C1409.09,-837 1466,-837 1512.38,-837"/>
<polygon fill="black" stroke="black" points="1512.12,-840.5 1522.12,-837 1512.12,-833.5 1512.12,-840.5"/>
</g>
<!-- cluster_closeModal -->
<g id="node47" class="node">
<title>cluster_closeModal</title>
<polygon fill="none" stroke="black" points="1675.88,-801 1523.38,-801 1523.38,-765 1675.88,-765 1675.88,-801"/>
<text text-anchor="middle" x="1599.62" y="-778.33" font-family="Times,serif" font-size="14.00">cluster_closeModal</text>
</g>
<!-- closeModal&#45;&gt;cluster_closeModal -->
<g id="edge46" class="edge">
<title>closeModal&#45;&gt;cluster_closeModal</title>
<path fill="none" stroke="black" d="M1364.08,-783C1409.48,-783 1465.56,-783 1511.49,-783"/>
<polygon fill="black" stroke="black" points="1511.43,-786.5 1521.43,-783 1511.43,-779.5 1511.43,-786.5"/>
</g>
<!-- cluster_loadExtentFromUrl -->
<g id="node48" class="node">
<title>cluster_loadExtentFromUrl</title>
<polygon fill="none" stroke="black" points="1705.5,-747 1493.75,-747 1493.75,-711 1705.5,-711 1705.5,-747"/>
<text text-anchor="middle" x="1599.62" y="-724.33" font-family="Times,serif" font-size="14.00">cluster_loadExtentFromUrl</text>
</g>
<!-- loadExtentFromUrl&#45;&gt;cluster_loadExtentFromUrl -->
<g id="edge47" class="edge">
<title>loadExtentFromUrl&#45;&gt;cluster_loadExtentFromUrl</title>
<path fill="none" stroke="black" d="M1393.55,-729C1422.25,-729 1453.13,-729 1482,-729"/>
<polygon fill="black" stroke="black" points="1481.86,-732.5 1491.86,-729 1481.86,-725.5 1481.86,-732.5"/>
</g>
<!-- keycloakInit -->
<g id="node12" class="node">
<title>keycloakInit</title>
<polygon fill="none" stroke="black" points="163.62,-983 17.88,-983 17.88,-947 163.62,-947 163.62,-983"/>
<text text-anchor="middle" x="90.75" y="-960.33" font-family="Times,serif" font-size="14.00">Initialize Keycloak</text>
</g>
<!-- checkAuth -->
<g id="node13" class="node">
<title>checkAuth</title>
<polygon fill="none" stroke="black" points="371.5,-983 202.5,-983 202.5,-947 371.5,-947 371.5,-983"/>
<text text-anchor="middle" x="287" y="-960.33" font-family="Times,serif" font-size="14.00">Check Authentication</text>
</g>
<!-- keycloakInit&#45;&gt;checkAuth -->
<g id="edge10" class="edge">
<title>keycloakInit&#45;&gt;checkAuth</title>
<path fill="none" stroke="black" d="M164.08,-965C172.8,-965 181.81,-965 190.8,-965"/>
<polygon fill="black" stroke="black" points="190.63,-968.5 200.63,-965 190.63,-961.5 190.63,-968.5"/>
</g>
<!-- showLoginModal -->
<g id="node14" class="node">
<title>showLoginModal</title>
<polygon fill="none" stroke="black" points="744.12,-976 596.12,-976 596.12,-940 744.12,-940 744.12,-976"/>
<text text-anchor="middle" x="670.12" y="-953.33" font-family="Times,serif" font-size="14.00">Show Login Modal</text>
</g>
<!-- checkAuth&#45;&gt;showLoginModal -->
<g id="edge11" class="edge">
<title>checkAuth&#45;&gt;showLoginModal</title>
<path fill="none" stroke="black" d="M371.64,-963.46C434.79,-962.3 521.1,-960.72 584.49,-959.55"/>
<polygon fill="black" stroke="black" points="584.21,-963.06 594.14,-959.38 584.08,-956.06 584.21,-963.06"/>
<text text-anchor="middle" x="455.12" y="-966.95" font-family="Times,serif" font-size="14.00">Not Authenticated</text>
</g>
<!-- assignGlobalKeycloak -->
<g id="node16" class="node">
<title>assignGlobalKeycloak</title>
<polygon fill="none" stroke="black" points="801.5,-1030 538.75,-1030 538.75,-994 801.5,-994 801.5,-1030"/>
<text text-anchor="middle" x="670.12" y="-1007.33" font-family="Times,serif" font-size="14.00">Assign Keycloak to Global Variable</text>
</g>
<!-- checkAuth&#45;&gt;assignGlobalKeycloak -->
<g id="edge12" class="edge">
<title>checkAuth&#45;&gt;assignGlobalKeycloak</title>
<path fill="none" stroke="black" d="M371.84,-980.35C377.81,-981.3 383.74,-982.19 389.5,-983 434.07,-989.26 482.82,-994.77 526.95,-999.26"/>
<polygon fill="black" stroke="black" points="526.56,-1002.74 536.86,-1000.26 527.26,-995.77 526.56,-1002.74"/>
<text text-anchor="middle" x="455.12" y="-1001.95" font-family="Times,serif" font-size="14.00">Authenticated</text>
</g>
<!-- setupEventListeners -->
<g id="node15" class="node">
<title>setupEventListeners</title>
<polygon fill="none" stroke="black" points="1042,-976 866.25,-976 866.25,-940 1042,-940 1042,-976"/>
<text text-anchor="middle" x="954.12" y="-953.33" font-family="Times,serif" font-size="14.00">Setup Event Listeners</text>
</g>
<!-- showLoginModal&#45;&gt;setupEventListeners -->
<g id="edge13" class="edge">
<title>showLoginModal&#45;&gt;setupEventListeners</title>
<path fill="none" stroke="black" d="M744.48,-958C778.13,-958 818.51,-958 854.74,-958"/>
<polygon fill="black" stroke="black" points="854.33,-961.5 864.33,-958 854.33,-954.5 854.33,-961.5"/>
</g>
<!-- refreshToken -->
<g id="node17" class="node">
<title>refreshToken</title>
<polygon fill="none" stroke="black" points="1013.12,-1030 895.12,-1030 895.12,-994 1013.12,-994 1013.12,-1030"/>
<text text-anchor="middle" x="954.12" y="-1007.33" font-family="Times,serif" font-size="14.00">Refresh Token</text>
</g>
<!-- assignGlobalKeycloak&#45;&gt;refreshToken -->
<g id="edge14" class="edge">
<title>assignGlobalKeycloak&#45;&gt;refreshToken</title>
<path fill="none" stroke="black" d="M801.81,-1012C829.92,-1012 858.57,-1012 883.28,-1012"/>
<polygon fill="black" stroke="black" points="883.19,-1015.5 893.19,-1012 883.19,-1008.5 883.19,-1015.5"/>
</g>
<!-- loadModules -->
<g id="node18" class="node">
<title>loadModules</title>
<polygon fill="none" stroke="black" points="165.5,-1115 16,-1115 16,-1079 165.5,-1079 165.5,-1115"/>
<text text-anchor="middle" x="90.75" y="-1092.33" font-family="Times,serif" font-size="14.00">Load Esri Modules</text>
</g>
<!-- setupMapView -->
<g id="node19" class="node">
<title>setupMapView</title>
<polygon fill="none" stroke="black" points="353.5,-1115 220.5,-1115 220.5,-1079 353.5,-1079 353.5,-1115"/>
<text text-anchor="middle" x="287" y="-1092.33" font-family="Times,serif" font-size="14.00">Setup Map View</text>
</g>
<!-- loadModules&#45;&gt;setupMapView -->
<g id="edge15" class="edge">
<title>loadModules&#45;&gt;setupMapView</title>
<path fill="none" stroke="black" d="M165.74,-1097C179.87,-1097 194.69,-1097 208.91,-1097"/>
<polygon fill="black" stroke="black" points="208.65,-1100.5 218.65,-1097 208.65,-1093.5 208.65,-1100.5"/>
</g>
<!-- addMapLayers -->
<g id="node20" class="node">
<title>addMapLayers</title>
<polygon fill="none" stroke="black" points="736.25,-1115 604,-1115 604,-1079 736.25,-1079 736.25,-1115"/>
<text text-anchor="middle" x="670.12" y="-1092.33" font-family="Times,serif" font-size="14.00">Add Map Layers</text>
</g>
<!-- setupMapView&#45;&gt;addMapLayers -->
<g id="edge16" class="edge">
<title>setupMapView&#45;&gt;addMapLayers</title>
<path fill="none" stroke="black" d="M353.95,-1097C420.25,-1097 522.38,-1097 592.3,-1097"/>
<polygon fill="black" stroke="black" points="592.15,-1100.5 602.15,-1097 592.15,-1093.5 592.15,-1100.5"/>
</g>
<!-- configureLayerVisibility -->
<g id="node21" class="node">
<title>configureLayerVisibility</title>
<polygon fill="none" stroke="black" points="1053.25,-1115 855,-1115 855,-1079 1053.25,-1079 1053.25,-1115"/>
<text text-anchor="middle" x="954.12" y="-1092.33" font-family="Times,serif" font-size="14.00">Configure Layer Visibility</text>
</g>
<!-- addMapLayers&#45;&gt;configureLayerVisibility -->
<g id="edge17" class="edge">
<title>addMapLayers&#45;&gt;configureLayerVisibility</title>
<path fill="none" stroke="black" d="M736.53,-1097C768.31,-1097 807.35,-1097 843.5,-1097"/>
<polygon fill="black" stroke="black" points="843.11,-1100.5 853.11,-1097 843.11,-1093.5 843.11,-1100.5"/>
</g>
<!-- setupEventListenersMap -->
<g id="node22" class="node">
<title>setupEventListenersMap</title>
<polygon fill="none" stroke="black" points="1367.38,-1115 1191.62,-1115 1191.62,-1079 1367.38,-1079 1367.38,-1115"/>
<text text-anchor="middle" x="1279.5" y="-1092.33" font-family="Times,serif" font-size="14.00">Setup Event Listeners</text>
</g>
<!-- configureLayerVisibility&#45;&gt;setupEventListenersMap -->
<g id="edge18" class="edge">
<title>configureLayerVisibility&#45;&gt;setupEventListenersMap</title>
<path fill="none" stroke="black" d="M1053.47,-1097C1093.55,-1097 1139.8,-1097 1179.91,-1097"/>
<polygon fill="black" stroke="black" points="1179.81,-1100.5 1189.81,-1097 1179.81,-1093.5 1179.81,-1100.5"/>
</g>
<!-- cluster_login&#45;&gt;setupMap -->
<g id="edge21" class="edge">
<title>cluster_login&#45;&gt;setupMap</title>
<path fill="none" stroke="black" d="M724.17,-816.7C763.14,-820.16 817.05,-824.94 862.77,-828.99"/>
<polygon fill="black" stroke="black" points="862.42,-832.47 872.69,-829.87 863.04,-825.5 862.42,-832.47"/>
</g>
<!-- cluster_setupMap&#45;&gt;end -->
<g id="edge22" class="edge">
<title>cluster_setupMap&#45;&gt;end</title>
<path fill="none" stroke="black" d="M1351.63,-671.61C1367.65,-668.23 1383.8,-662.5 1397,-653 1578.21,-522.65 1597.32,-214.52 1598.74,-117.67"/>
<polygon fill="black" stroke="black" points="1602.24,-117.98 1598.82,-107.95 1595.24,-117.92 1602.24,-117.98"/>
</g>
<!-- checkTokenExpiry -->
<g id="node25" class="node">
<title>checkTokenExpiry</title>
<polygon fill="none" stroke="black" points="1052.88,-86 855.38,-86 855.38,-50 1052.88,-50 1052.88,-86"/>
<text text-anchor="middle" x="954.12" y="-63.33" font-family="Times,serif" font-size="14.00">Check if Token is Expired</text>
</g>
<!-- checkTokenExpiry&#45;&gt;end -->
<g id="edge24" class="edge">
<title>checkTokenExpiry&#45;&gt;end</title>
<path fill="none" stroke="black" d="M1053.25,-74.21C1064.87,-74.86 1076.57,-75.48 1087.75,-76 1233.12,-82.83 1269.5,-84.16 1415,-87 1463.61,-87.95 1519.46,-88.12 1556.68,-88.11"/>
<polygon fill="black" stroke="black" points="1556.57,-91.61 1566.57,-88.1 1556.56,-84.61 1556.57,-91.61"/>
<text text-anchor="middle" x="1279.5" y="-90.95" font-family="Times,serif" font-size="14.00">Not Expired</text>
</g>
<!-- updateToken -->
<g id="node26" class="node">
<title>updateToken</title>
<polygon fill="none" stroke="black" points="1337,-52 1222,-52 1222,-16 1337,-16 1337,-52"/>
<text text-anchor="middle" x="1279.5" y="-29.32" font-family="Times,serif" font-size="14.00">Update Token</text>
</g>
<!-- checkTokenExpiry&#45;&gt;updateToken -->
<g id="edge23" class="edge">
<title>checkTokenExpiry&#45;&gt;updateToken</title>
<path fill="none" stroke="black" d="M1053.03,-57.71C1103.92,-52.36 1164.86,-45.95 1210.55,-41.14"/>
<polygon fill="black" stroke="black" points="1210.74,-44.64 1220.32,-40.12 1210,-37.68 1210.74,-44.64"/>
<text text-anchor="middle" x="1115.88" y="-58.95" font-family="Times,serif" font-size="14.00">Expired</text>
</g>
<!-- updateToken&#45;&gt;end -->
<g id="edge25" class="edge">
<title>updateToken&#45;&gt;end</title>
<path fill="none" stroke="black" d="M1337.37,-43.65C1400.94,-54.44 1502.28,-71.65 1558.22,-81.14"/>
<polygon fill="black" stroke="black" points="1557.5,-84.57 1567.95,-82.79 1558.68,-77.67 1557.5,-84.57"/>
<text text-anchor="middle" x="1443.5" y="-69.95" font-family="Times,serif" font-size="14.00">Success</text>
</g>
<!-- logout -->
<g id="node27" class="node">
<title>logout</title>
<polygon fill="none" stroke="black" points="1632.38,-52 1566.88,-52 1566.88,-16 1632.38,-16 1632.38,-52"/>
<text text-anchor="middle" x="1599.62" y="-29.32" font-family="Times,serif" font-size="14.00">Logout</text>
</g>
<!-- updateToken&#45;&gt;logout -->
<g id="edge26" class="edge">
<title>updateToken&#45;&gt;logout</title>
<path fill="none" stroke="black" d="M1337.37,-34C1399.78,-34 1498.57,-34 1555.09,-34"/>
<polygon fill="black" stroke="black" points="1554.97,-37.5 1564.97,-34 1554.97,-30.5 1554.97,-37.5"/>
<text text-anchor="middle" x="1443.5" y="-37.95" font-family="Times,serif" font-size="14.00">Failure</text>
</g>
<!-- removeCurrentLayer -->
<g id="node28" class="node">
<title>removeCurrentLayer</title>
<polygon fill="none" stroke="black" points="759.5,-616 580.75,-616 580.75,-580 759.5,-580 759.5,-616"/>
<text text-anchor="middle" x="670.12" y="-593.33" font-family="Times,serif" font-size="14.00">Remove Current Layer</text>
</g>
<!-- addNewLayer -->
<g id="node29" class="node">
<title>addNewLayer</title>
<polygon fill="none" stroke="black" points="1016.88,-616 891.38,-616 891.38,-580 1016.88,-580 1016.88,-616"/>
<text text-anchor="middle" x="954.12" y="-593.33" font-family="Times,serif" font-size="14.00">Add New Layer</text>
</g>
<!-- removeCurrentLayer&#45;&gt;addNewLayer -->
<g id="edge27" class="edge">
<title>removeCurrentLayer&#45;&gt;addNewLayer</title>
<path fill="none" stroke="black" d="M759.96,-598C798.59,-598 843.3,-598 879.96,-598"/>
<polygon fill="black" stroke="black" points="879.56,-601.5 889.56,-598 879.56,-594.5 879.56,-601.5"/>
</g>
<!-- updateCurrentLayer -->
<g id="node30" class="node">
<title>updateCurrentLayer</title>
<polygon fill="none" stroke="black" points="1366.62,-616 1192.38,-616 1192.38,-580 1366.62,-580 1366.62,-616"/>
<text text-anchor="middle" x="1279.5" y="-593.33" font-family="Times,serif" font-size="14.00">Update Current Layer</text>
</g>
<!-- addNewLayer&#45;&gt;updateCurrentLayer -->
<g id="edge28" class="edge">
<title>addNewLayer&#45;&gt;updateCurrentLayer</title>
<path fill="none" stroke="black" d="M1017.09,-598C1063.31,-598 1127.36,-598 1180.49,-598"/>
<polygon fill="black" stroke="black" points="1180.49,-601.5 1190.49,-598 1180.49,-594.5 1180.49,-601.5"/>
</g>
<!-- updateCurrentLayer&#45;&gt;end -->
<g id="edge29" class="edge">
<title>updateCurrentLayer&#45;&gt;end</title>
<path fill="none" stroke="black" d="M1367.02,-583.36C1377.66,-579.4 1387.95,-574.38 1397,-568 1445.65,-533.68 1445.44,-510.29 1472,-457 1532.03,-336.56 1575.16,-180.79 1591.45,-117.09"/>
<polygon fill="black" stroke="black" points="1594.84,-117.97 1593.9,-107.42 1588.05,-116.26 1594.84,-117.97"/>
</g>
<!-- removeLabelLayer -->
<g id="node31" class="node">
<title>removeLabelLayer</title>
<polygon fill="none" stroke="black" points="1034.88,-531 873.38,-531 873.38,-495 1034.88,-495 1034.88,-531"/>
<text text-anchor="middle" x="954.12" y="-508.32" font-family="Times,serif" font-size="14.00">Remove Label Layer</text>
</g>
<!-- addLabelLayer -->
<g id="node32" class="node">
<title>addLabelLayer</title>
<polygon fill="none" stroke="black" points="1345.62,-531 1213.38,-531 1213.38,-495 1345.62,-495 1345.62,-531"/>
<text text-anchor="middle" x="1279.5" y="-508.32" font-family="Times,serif" font-size="14.00">Add Label Layer</text>
</g>
<!-- removeLabelLayer&#45;&gt;addLabelLayer -->
<g id="edge30" class="edge">
<title>removeLabelLayer&#45;&gt;addLabelLayer</title>
<path fill="none" stroke="black" d="M1035.06,-513C1085.9,-513 1151.38,-513 1201.61,-513"/>
<polygon fill="black" stroke="black" points="1201.55,-516.5 1211.55,-513 1201.55,-509.5 1201.55,-516.5"/>
</g>
<!-- addLabelLayer&#45;&gt;end -->
<g id="edge31" class="edge">
<title>addLabelLayer&#45;&gt;end</title>
<path fill="none" stroke="black" d="M1346.12,-504.89C1363.79,-500.45 1382.11,-493.6 1397,-483 1526.22,-391.05 1578.03,-191.35 1593.34,-116.82"/>
<polygon fill="black" stroke="black" points="1596.69,-117.94 1595.2,-107.45 1589.82,-116.58 1596.69,-117.94"/>
</g>
<!-- getCoordinates -->
<g id="node33" class="node">
<title>getCoordinates</title>
<polygon fill="none" stroke="black" points="736.25,-446 604,-446 604,-410 736.25,-410 736.25,-446"/>
<text text-anchor="middle" x="670.12" y="-423.32" font-family="Times,serif" font-size="14.00">Get Coordinates</text>
</g>
<!-- goToCoordinates -->
<g id="node34" class="node">
<title>goToCoordinates</title>
<polygon fill="none" stroke="black" points="1026.62,-446 881.62,-446 881.62,-410 1026.62,-410 1026.62,-446"/>
<text text-anchor="middle" x="954.12" y="-423.32" font-family="Times,serif" font-size="14.00">Go to Coordinates</text>
</g>
<!-- getCoordinates&#45;&gt;goToCoordinates -->
<g id="edge32" class="edge">
<title>getCoordinates&#45;&gt;goToCoordinates</title>
<path fill="none" stroke="black" d="M736.53,-428C776.18,-428 827.14,-428 869.67,-428"/>
<polygon fill="black" stroke="black" points="869.63,-431.5 879.63,-428 869.63,-424.5 869.63,-431.5"/>
</g>
<!-- closeModalAfterZoom -->
<g id="node35" class="node">
<title>closeModalAfterZoom</title>
<polygon fill="none" stroke="black" points="1331.38,-446 1227.62,-446 1227.62,-410 1331.38,-410 1331.38,-446"/>
<text text-anchor="middle" x="1279.5" y="-423.32" font-family="Times,serif" font-size="14.00">Close Modal</text>
</g>
<!-- goToCoordinates&#45;&gt;closeModalAfterZoom -->
<g id="edge33" class="edge">
<title>goToCoordinates&#45;&gt;closeModalAfterZoom</title>
<path fill="none" stroke="black" d="M1026.89,-428C1083.58,-428 1161.89,-428 1216.02,-428"/>
<polygon fill="black" stroke="black" points="1216.01,-431.5 1226.01,-428 1216.01,-424.5 1216.01,-431.5"/>
</g>
<!-- closeModalAfterZoom&#45;&gt;end -->
<g id="edge34" class="edge">
<title>closeModalAfterZoom&#45;&gt;end</title>
<path fill="none" stroke="black" d="M1331.6,-422.71C1353.22,-418.56 1377.8,-411.17 1397,-398 1502.41,-325.69 1565.82,-178.33 1588.8,-116.41"/>
<polygon fill="black" stroke="black" points="1591.98,-117.9 1592.1,-107.3 1585.4,-115.51 1591.98,-117.9"/>
</g>
<!-- findModal -->
<g id="node36" class="node">
<title>findModal</title>
<polygon fill="none" stroke="black" points="1034.88,-361 873.38,-361 873.38,-325 1034.88,-325 1034.88,-361"/>
<text text-anchor="middle" x="954.12" y="-338.32" font-family="Times,serif" font-size="14.00">Find Modal Element</text>
</g>
<!-- displayModal -->
<g id="node37" class="node">
<title>displayModal</title>
<polygon fill="none" stroke="black" points="1338.5,-361 1220.5,-361 1220.5,-325 1338.5,-325 1338.5,-361"/>
<text text-anchor="middle" x="1279.5" y="-338.32" font-family="Times,serif" font-size="14.00">Display Modal</text>
</g>
<!-- findModal&#45;&gt;displayModal -->
<g id="edge35" class="edge">
<title>findModal&#45;&gt;displayModal</title>
<path fill="none" stroke="black" d="M1035.06,-343C1088.36,-343 1157.73,-343 1208.78,-343"/>
<polygon fill="black" stroke="black" points="1208.52,-346.5 1218.52,-343 1208.52,-339.5 1208.52,-346.5"/>
</g>
<!-- displayModal&#45;&gt;end -->
<g id="edge36" class="edge">
<title>displayModal&#45;&gt;end</title>
<path fill="none" stroke="black" d="M1338.87,-334.97C1358.34,-330.52 1379.51,-323.63 1397,-313 1482.19,-261.23 1552.02,-162.32 1582.34,-114.79"/>
<polygon fill="black" stroke="black" points="1585.2,-116.81 1587.56,-106.48 1579.28,-113.09 1585.2,-116.81"/>
</g>
<!-- findModalClose -->
<g id="node38" class="node">
<title>findModalClose</title>
<polygon fill="none" stroke="black" points="1034.88,-276 873.38,-276 873.38,-240 1034.88,-240 1034.88,-276"/>
<text text-anchor="middle" x="954.12" y="-253.32" font-family="Times,serif" font-size="14.00">Find Modal Element</text>
</g>
<!-- hideModal -->
<g id="node39" class="node">
<title>hideModal</title>
<polygon fill="none" stroke="black" points="1328.75,-276 1230.25,-276 1230.25,-240 1328.75,-240 1328.75,-276"/>
<text text-anchor="middle" x="1279.5" y="-253.32" font-family="Times,serif" font-size="14.00">Hide Modal</text>
</g>
<!-- findModalClose&#45;&gt;hideModal -->
<g id="edge37" class="edge">
<title>findModalClose&#45;&gt;hideModal</title>
<path fill="none" stroke="black" d="M1035.06,-258C1091.92,-258 1167.08,-258 1218.77,-258"/>
<polygon fill="black" stroke="black" points="1218.56,-261.5 1228.56,-258 1218.56,-254.5 1218.56,-261.5"/>
</g>
<!-- hideModal&#45;&gt;end -->
<g id="edge38" class="edge">
<title>hideModal&#45;&gt;end</title>
<path fill="none" stroke="black" d="M1329.14,-249.51C1350.55,-244.76 1375.64,-237.78 1397,-228 1465.94,-196.43 1536.44,-141.12 1573.04,-110.31"/>
<polygon fill="black" stroke="black" points="1575.09,-113.17 1580.44,-104.02 1570.55,-107.83 1575.09,-113.17"/>
</g>
<!-- parseUrl -->
<g id="node40" class="node">
<title>parseUrl</title>
<polygon fill="none" stroke="black" points="1000,-191 908.25,-191 908.25,-155 1000,-155 1000,-191"/>
<text text-anchor="middle" x="954.12" y="-168.32" font-family="Times,serif" font-size="14.00">Parse URL</text>
</g>
<!-- setExtent -->
<g id="node41" class="node">
<title>setExtent</title>
<polygon fill="none" stroke="black" points="1343.75,-191 1215.25,-191 1215.25,-155 1343.75,-155 1343.75,-191"/>
<text text-anchor="middle" x="1279.5" y="-168.32" font-family="Times,serif" font-size="14.00">Set Map Extent</text>
</g>
<!-- parseUrl&#45;&gt;setExtent -->
<g id="edge39" class="edge">
<title>parseUrl&#45;&gt;setExtent</title>
<path fill="none" stroke="black" d="M1000.43,-173C1053.04,-173 1140.62,-173 1203.44,-173"/>
<polygon fill="black" stroke="black" points="1203.36,-176.5 1213.36,-173 1203.36,-169.5 1203.36,-176.5"/>
</g>
<!-- setExtent&#45;&gt;end -->
<g id="edge40" class="edge">
<title>setExtent&#45;&gt;end</title>
<path fill="none" stroke="black" d="M1344.03,-156.82C1361.23,-152.39 1379.84,-147.55 1397,-143 1453.78,-127.95 1519.38,-109.94 1559.94,-98.73"/>
<polygon fill="black" stroke="black" points="1560.77,-102.13 1569.48,-96.09 1558.91,-95.38 1560.77,-102.13"/>
</g>
</g>
</svg>
